<svg xmlns="http://www.w3.org/2000/svg" width="1920" height="368" viewBox="0 0 1920 368"><path fill="#f2ede4" d="M0 257.6c80.7-61.7 138.4 16.7 243.2 20.4 85.3 3 160.3-112.8 271.2-120.6 124-8.7 241.5 113 313.1 123.9 98.8 15.1 193.8-65.9 294.3-65.9 105.5 0 179.5 60.9 273.3 49.2 99.7-12.5 214.3-108.9 316.5-108.9s125.6 115.9 208.4 115.9v96.2H0z"/><path fill="#94d2d4" d="M1121.8 215.4c105.5 0 179.5 60.9 273.3 49.2 99.7-12.5 214.3-108.9 316.5-108.9s125.6 115.9 208.4 115.9v-20.2C1839.1 241.1 1812.5 82 1708 82c-107.9 0-229.1 141.3-334.5 159.6-99.1 17.2-177.4-72.1-288.9-72.1-100.7 0-196.4 106.8-295.1 98.9 13.8 6.5 26.5 11.2 38 12.9 98.8 15.1 193.8-65.9 294.3-65.9zM65 234c-23.1-11.4-44.3-23.6-65-30.8v54.4C23 240 44.1 233.8 65 234zm449.4-76.6c57.3-4 113.3 19.9 164 47.8-68.1-56.2-150.5-129-235.9-120.7-114.3 11.1-192.6 172.9-280 176.7 24.1 8.4 50.4 15.7 80.7 16.8 85.3 3 160.3-112.8 271.2-120.6z"/><path fill="none" stroke="#94d2d4" stroke-linecap="round" stroke-miterlimit="10" stroke-width="10" d="M491.5 280.9v-145m734.4 136.7V215m348.3 1.3v-57.6M433.4 212.8v-57.6M926.8 290v-57.6M24 286.4v-57.6m1642.8 31.4V143.8M882.1 323.9v-58.2"/><path fill="#f66256" d="M162.5 261.2c16.5-.7 32.7-7.1 48.9-17-78.5-23.9-131.5-90.5-197.4-35.5 16.3 7.1 33.1 16.5 51 25.3 31.2.3 61.9 14.9 97.5 27.2zm627 7.2c24.6 2 49-3.1 73.3-12C787.9 238 666 62.5 537.4 75.2c-15.9 1.5-31.2 6.1-45.9 12.9 67.7 15.6 132 71.7 186.9 117.1 41.2 22.7 79 48.1 111.1 63.2zm1130.5-17v-72.3c-35-48.3-69.3-106.4-131.7-106.4-18.9 0-38.3 4.5-57.9 11.9 86.4 20.6 114.8 157.2 189.6 166.8zm-546.5-9.8a186.4 186.4 0 0 0 33-9.3c-75.7-12.1-144-72.1-234.4-72.1-20 0-39.8 4.3-59.5 11.1 97.1 12.7 170.3 86 260.9 70.3z"/><path fill="none" stroke="#f66256" stroke-linecap="round" stroke-miterlimit="10" stroke-width="10" d="M1810 251.4v-145m-464.6 147.3v-30.8M747.5 323.4v-88.3M583 179v-57.6m-439.9 165v-57.6M101 331.1v-94.9m1053.5 52.4V172.2m-610-33.2V80.8"/></svg>