<svg xmlns="http://www.w3.org/2000/svg" width="1920" height="368" viewBox="0 0 1920 368"><path fill="#f66256" d="M1757.5 106.5c-16.5.8-32.7 7.1-48.9 17.1 78.5 23.9 131.5 90.5 197.4 35.5-16.3-7.1-33.1-16.5-51-25.3-31.2-.3-61.9-14.9-97.5-27.3zm-627-7.2c-24.6-1.9-49 3.2-73.3 12.1 74.9 18.3 196.8 193.9 325.4 181.2a143.1 143.1 0 0 0 45.9-12.9c-67.7-15.6-132-71.8-186.9-117.1-41.2-22.7-79-48.1-111.1-63.3zM0 116.4v72.3C35 237 69.3 295.1 131.7 295.1c18.9 0 38.3-4.5 57.9-11.9C103.2 262.6 74.8 125.9 0 116.4zm546.5 9.8a186.4 186.4 0 0 0-33 9.3c75.7 12.1 144 72.1 234.4 72.1 20 0 39.8-4.3 59.5-11.1-97.1-12.7-170.3-86-260.9-70.3z"/><path fill="none" stroke="#f66256" stroke-linecap="round" stroke-miterlimit="10" stroke-width="10" d="M42.7 211.4v145.1m544.5-220v57.6m543.3-50.7V201m206.5 52.5v57.6m485.6-159.6v57.6m-1085.5-4.6v116.4m638.4-46.6v58.2"/><path fill="#94d2d4" d="M798.2 152.4c-105.5 0-179.5-60.9-273.3-49.2-99.7 12.5-214.3 108.9-316.5 108.9S82.8 96.1 0 96.1v20.3c80.9 10.3 107.5 169.3 212 169.3 107.9 0 229.1-141.2 334.5-159.5 99.1-17.2 177.4 72.1 288.9 72.1 100.7 0 196.4-106.8 295.1-99-13.8-6.4-26.5-11.1-38-12.8-98.8-15.1-193.8 65.9-294.3 65.9zM1855 133.8c23.1 11.4 44.3 23.6 65 30.8v-54.4c-23 17.6-44.1 23.8-65 23.6zm-449.4 76.6c-57.3 4-113.3-19.9-164-47.8 68.1 56.2 150.5 129 235.9 120.7 114.3-11.1 192.6-172.9 280-176.8-24.1-8.3-50.4-15.6-80.7-16.7-85.3-3-160.3 112.8-271.2 120.6z"/><path fill="none" stroke="#94d2d4" stroke-linecap="round" stroke-miterlimit="10" stroke-width="10" d="M1519.5 200.5v145.1M481.4 122.7v57.6m812 13.4v57.6m-406.8-86v57.6m802-108.6v57.6M302.2 195.3v116.4m609.5-168.6v58.2"/><path fill="#f2ede4" d="M1920 110.2c-80.7 61.7-138.4-16.7-243.2-20.4-85.3-3-160.3 112.8-271.2 120.6-124 8.7-241.5-113-313.1-123.9-98.8-15.1-193.8 65.9-294.3 65.9-105.5 0-179.5-60.9-273.3-49.2-99.7 12.5-214.3 108.9-316.5 108.9S82.8 96.1 0 96.1V0h1920z"/><path fill="none" stroke="#f2ede4" stroke-linecap="round" stroke-miterlimit="10" stroke-width="10" d="M1465.9 114.3v145.1M322.3 158v57.7m701.6-159.9v57.6m-363.4 3V174"/><path fill="none" stroke="#f2ede4" stroke-linecap="round" stroke-miterlimit="10" stroke-width="7.07" d="M1644.2 77.2v57.6m198.5-39.6v57.6"/><path fill="none" stroke="#f2ede4" stroke-linecap="round" stroke-miterlimit="10" stroke-width="10" d="M163.2 135.5v116.4M704.1 87.3v58.1"/></svg>