<svg xmlns="http://www.w3.org/2000/svg"><symbol id="behance" viewBox="0 0 256 256"><path d="M75.9 50.2a93.8 93.8 0 0 1 19.9 2 42 42 0 0 1 15.4 6.3 29 29 0 0 1 10 11.6c2.3 4.8 3.5 10.8 3.5 17.9s-1.8 14.1-5.3 19.3-8.6 9.3-15.5 12.6c9.4 2.7 16.3 7.4 20.9 14.2s6.9 14.9 6.9 24.5c0 7.7-1.4 14.4-4.4 20a38.6 38.6 0 0 1-12.1 13.8 51.3 51.3 0 0 1-17.4 7.9 73.4 73.4 0 0 1-19.9 2.6h-74V50.2zm-4.4 61.7c6 0 10.9-1.4 14.8-4.3s5.8-7.5 5.8-13.9a18.7 18.7 0 0 0-1.9-8.7 13.3 13.3 0 0 0-5.2-5.3 21 21 0 0 0-7.4-2.7 41.1 41.1 0 0 0-8.6-.8H37.5v35.7zm1.9 65a47.6 47.6 0 0 0 9.4-.9 21.6 21.6 0 0 0 7.9-3.3 16.3 16.3 0 0 0 5.5-6.1c1.4-2.5 2-5.9 2-9.9q0-11.7-6.6-16.8c-4.4-3.4-10.3-5-17.5-5H37.5v42zm106.3-.5c4.5 4.4 11.1 6.7 19.6 6.7a27.4 27.4 0 0 0 15.9-4.7c4.4-3 7-6.3 8.1-9.8H250c-4.3 13.4-10.8 22.9-19.7 28.6s-19.5 8.6-32 8.6a63.2 63.2 0 0 1-23.6-4.2 50.2 50.2 0 0 1-17.8-11.9 54.7 54.7 0 0 1-11.3-18.4 68.3 68.3 0 0 1-3.9-23.6 64.4 64.4 0 0 1 4-23.1 54.2 54.2 0 0 1 29.5-30.9 57.7 57.7 0 0 1 23.1-4.5c9.3 0 17.5 1.8 24.6 5.5a48.8 48.8 0 0 1 17.2 14.6 61.2 61.2 0 0 1 9.7 21 77.4 77.4 0 0 1 2.1 24.6h-79.8c0 8.8 3 17.1 7.6 21.5zm34.9-58.1c-3.7-4-9.8-6.1-17.2-6.1a26.9 26.9 0 0 0-12.1 2.4 26.3 26.3 0 0 0-7.7 6.1 22.6 22.6 0 0 0-4.1 7.8 46.3 46.3 0 0 0-1.4 7.3h49.5c-.8-7.7-3.4-13.5-7-17.5zm-48.7-57.8h61.9v15.07h-61.9z"/></symbol><symbol id="instagram" viewBox="0 0 256 256"><path d="M128 25.6c33.3 0 37.3.2 50.4.8s18.8 2.6 23.2 4.3A37.3 37.3 0 0 1 216 40a37.3 37.3 0 0 1 9.3 14.4c1.7 4.4 3.8 11 4.3 23.2s.8 17.1.8 50.4-.2 37.3-.8 50.4-2.6 18.8-4.3 23.2a40.7 40.7 0 0 1-23.7 23.7c-4.4 1.7-11 3.8-23.2 4.3s-17.1.8-50.4.8-37.3-.2-50.4-.8-18.8-2.6-23.2-4.3A37.3 37.3 0 0 1 40 216a37.3 37.3 0 0 1-9.3-14.4c-1.7-4.4-3.8-11-4.3-23.2s-.8-17.1-.8-50.4.2-37.3.8-50.4 2.6-18.8 4.3-23.2A37.3 37.3 0 0 1 40 40a37.3 37.3 0 0 1 14.4-9.3c4.4-1.7 11-3.8 23.2-4.3s17.1-.8 50.4-.8m0-22.4c-33.9 0-38.2.1-51.5.7S54.2 6.6 46.2 9.7a61.5 61.5 0 0 0-22.1 14.4A61.5 61.5 0 0 0 9.7 46.2c-3.1 8-5.2 17-5.8 30.3s-.7 17.6-.7 51.5.1 38.2.7 51.5 2.7 22.3 5.8 30.3a61.5 61.5 0 0 0 14.4 22.1 61.5 61.5 0 0 0 22.1 14.4c8 3.1 17 5.2 30.3 5.8s17.6.7 51.5.7 38.2-.1 51.5-.7 22.3-2.7 30.3-5.8a63.9 63.9 0 0 0 36.5-36.5c3.1-8 5.2-17 5.8-30.3s.7-17.6.7-51.5-.1-38.2-.7-51.5-2.7-22.3-5.8-30.3a61.5 61.5 0 0 0-14.4-22.1 61.5 61.5 0 0 0-22.1-14.4c-8-3.1-17-5.2-30.3-5.8s-17.6-.7-51.5-.7z"/><path d="M128 63.9a64.1 64.1 0 1 0 64.1 64.1A64.1 64.1 0 0 0 128 63.9zm0 105.7a41.6 41.6 0 1 1 41.6-41.6 41.6 41.6 0 0 1-41.6 41.6z"/><circle cx="194.6" cy="61.4" r="15"/></symbol><symbol id="email" viewBox="0 0 256 256"><path d="M246.5 46.4l-.6-.5c0-.1 0-.1-.1-.2h-.2a24.1 24.1 0 0 0-17-7H27.4a24.1 24.1 0 0 0-16.8 6.8h-.2l-.8.8A24.3 24.3 0 0 0 3 63v130a24.4 24.4 0 0 0 7.5 17.6l.4.4a24.8 24.8 0 0 0 16.5 6.4h201.2a24.3 24.3 0 0 0 16.5-6.4l.4-.4A24.4 24.4 0 0 0 253 193V63a24.6 24.6 0 0 0-6.5-16.6zM24.1 75.3l52.3 55.1a56.7 56.7 0 0 0 5 4.8L24.1 184zm141.4 40.3a50.6 50.6 0 0 1-36.9 16.1h-.1a50.8 50.8 0 0 1-36.9-15.8L38.3 59.7h179.8zM100 146.9a72.1 72.1 0 0 0 28.4 5.8h.3a71.3 71.3 0 0 0 28.3-5.8l57.2 49.4H42.1zm75.6-11.8c1.8-1.6 3.6-3.3 5.3-5.1l51-54.3v108.1z"/></symbol><symbol id="next" viewBox="0 0 256 256"><path d="M178.6 91.4L95.7 11.2a26.5 26.5 0 0 0-36.6 0 26.3 26.3 0 0 0 0 37.8l81.7 79-81.7 79a26.3 26.3 0 0 0 0 37.8 26.5 26.5 0 0 0 36.6 0l82.9-80.2 18.3-17.7a26.3 26.3 0 0 0 0-37.8z"/></symbol><symbol id="bullet" viewBox="0 0 256 256"><path fill="#94d2d4" d="M219.6 36.4V3.5H3.5v216.1h32.9V36.4h183.2z"/><path fill="#f66256" d="M219.6 36.4v183.2H36.4v32.9h216.1V36.4h-32.9z"/><path fill="#2f3540" d="M36.4 36.4h183.3v183.25H36.4z"/></symbol><symbol id="previous" viewBox="0 0 256 256"><path d="M77.4 91.4l82.9-80.2a26.5 26.5 0 0 1 36.6 0 26.3 26.3 0 0 1 0 37.8l-81.7 79 81.7 79a26.3 26.3 0 0 1 0 37.8 26.5 26.5 0 0 1-36.6 0l-82.9-80.2-18.3-17.7a26.3 26.3 0 0 1 0-37.8z"/></symbol><symbol id="warning" viewBox="0 0 256 256"><path d="M128 2.8A125.2 125.2 0 1 0 253.2 128 125.1 125.1 0 0 0 128 2.8zM147 192c-4.9 4.7-11.3 7-19 7s-14.1-2.3-19-7a22.6 22.6 0 0 1-7.4-17 22 22 0 0 1 7.4-16.9c4.9-4.5 11.3-6.7 19-6.7s14.1 2.2 19 6.7a22 22 0 0 1 7.4 16.9 22.6 22.6 0 0 1-7.4 17zm-1-48.6h-36L101 57h54z"/></symbol></svg>