<svg xmlns="http://www.w3.org/2000/svg" width="816" height="66pc" viewBox="0 0 612 792"><path fill="none" stroke="#f16257" stroke-linecap="round" stroke-linejoin="round" stroke-width="5.11" d="M462.9 706.3c19.5-42.6-150.5-145.7-65.9-258.2 0 0-28 56.8-2.8 70.7s35.4 19 41 61.8 35.4 41.5 47.9 69.4 26.1 103.3 15.5 124.7c52.8-109-7.6-160.8-23-243.4-8.3-44.5 28-74.4 32.3-105.9s-21.7-76.7-17.4-110 26.8-36.9 26.8-74.9-53.5-159.1-80.2-121.8c-18-17.2 29.9-80.8-31.9-98.7s-59.4 3.2-88.7 13.1-55.9-2.8-105.7 44.8-11.3 61.9-32.7 92.8C125.9 246 138.8 329.4 106.3 371c-52.8 67.4-38.6 131.4-30.6 182 9.2 58.1 20 114-8 162.7 22.3-12.3 32.3-41.8 57.1-140 19.6-77.6-58.8-97.2 12.4-195.3 25.2-34.7 50.2-65.6 50.2-128.6s23.6-41.1 26.8-63.7 8-121.9 80.1-126.1 70.1-45.3 92.1-15.1c36 49.6 34.8 46.4.6 23.5-28-18.7-75.8 10.4-86.4 27.9s-32.5 48.5-44.8 55.3-26.8 57.4-38.6 74.7 2.1 75.1-17.8 103.4-44.2 71-37.3 101.9 22.4 99.2-8.7 150.3S117.6 675.7 130 711c6.6 18.7 28 64.1 24 67.9 17.2-9.4-27.2-109.3 6-148s57.3-136.9 51.8-172.6c-3.8-24.5-12.3-54.7-8-73 21.5-91.6 19.1-91.3 19.1 1.6 0 58.4 33.9 90.2 31.7 118-3.8 45.8-44.7 90.4-60.1 117.8-9.8 17.4-14.9 73.6 32.3 104.8 83.1 54.9 66.1 47.3 13-18-21.8-26.8-36.4-65.8-10-95.7 20.2-22.8 52.3-56.2 51.8-110.3-.3-37.2-16.8-93.6-29.7-133.2-21.7-66.5-2.9-70.9 3.8-109 9.2-52.3 36.4-156.9 110.5-156.9 32 0 65.1 15 70.9 22.5s30.7 103.4 30.7 124.9-5.4 86.9-24.2 115.7c-16 24.4-22.5 66.1-58 71.4s-69.2-19.7-91.3-38.1c-16-13.4-21.7-30.4-29.2-45.6-3.9-8-21.2-46-10-71.6 6.4-15.8 14.8-16.3 14.8-16.3 4.3 2.6 18.7 10.5 32.5 8.7s20.9-8.8 23.9-8.7 9 .5 9-3.1a2.8 2.8 0 0 0-.6-1.8c-1.4-1.8-5.1-2.2-8.3-4.2s-16.9-10-30.5-8.2c-9.1.6-11.5-2.1-10.9-.5s5.8 2.3 1.7 3.6-11-5.7-9.8-2.3 7.2 3.4 5.3 5.1-15.2-4.4-12-1 10.1 3.6 6.8 5.2c-5.6 2.9-16.4-2.2-11.8 1.5s5.3 3.5 8 2.4c5.9-3.1 12.2-12.8 18.7-11.4 3.3.7-3.2 2.8-2.4 10.7.5 5.3 5.2 8.7 11 8.6s11.5-4.1 11.3-10.5-6.8-9.1-10.3-9.3-6.8 8.4-4.5 10.8 5.3 1.8 6.3-1.1.1-5.6-3.5-5.7-8.2-6.6 1.2-5.3c0 0 6.7-2.7 33.7 10.3 2.7-2.5-1.3-27.9-6.7-31.2s-42.7-15.2-56.7-4.6c-9 6.8 1.7 4.3 16.2 6.1s21.9 6.5 29.9 5.2 12.3-7 14.8-4.4 27.5 41.1 19.2 76.7c-13.1 12.2-6.9 27.7 4.5 25.8s6.2 9.6 20.7 7.4 3.6 20.8-.3 20.6-12.3-2.8-26.1 4.4-10.7-1.4-19.4-1.4c0 0 7.3 1 9.4 5.1 1.2 2.4 14.7 23.2 36.9 20.8s33.4-18.8 33.4-27.8c0-6.3 6.5-7.1 6.5-7.1s-7.7 5.1-15.2 4.8-23.9-4-24.1 7.6c-.2 10.1 32.1-2.8 32.1-2.8 1.6 4.8-13.6 23.5-32.7 25.3s-35.9-16.1-36.9-20.8c0 0 25.5 5.2 33.6 2.6s2.5-10.7 2.5-10.7-4.9-17.8.3-20.6c13.9-1.4 11.1-8.3 17.1-11 15.5-7 6.1-19.4-2.9-28.8-16.6-59.9-2.6-71.7-.9-74.9s7.5 1.3 15.5.7 13.8-6.9 27.3-12.1 31.2-1.2 20.6-5.6c-16.7-6.9-55.6 3.8-60 13.7-2.5 5.7-6.1 24.5-2.8 26.3 22.4-18.9 20-16.3 20-16.3 8.8-3.5 6.1 3.8 2.7 4.8s-3.6 3.9-1.7 6.4 4.9 2.3 6.4-.5-4-10.3-7.4-9.3-8 4.4-6.2 11.5 6.6 8.8 12.8 7.4 9.2-5.7 8.2-11c-1.6-7.8-8.5-9.1-5.4-10.6 5.9-2.9 19.4 6.3 25.9 7.9 3 .4 3 .4 9.1-2.1s-7.6.7-13.8-.7c-3.7-.9 7-2.9 9.1-4.8s-12.1 3.7-15.4 1.9 6.9-3.3 8.6-6-9.1 4.7-13.7 4.4 2.1-4.5 4.1-6.5-4.2 1.9-13.2 3.4c-13.6 1.5-19.7 12.1-22.9 15.4s-5.9 3.9-6.8 6a2.5 2.5 0 0 0 0 1.9c1.1 3.4 6.8 1.6 9.6.8s7.5 4.2 21.3 2.6 20.4-5.7 23.7-9.2"/><path fill="none" stroke="#94d1d3" stroke-linecap="round" stroke-linejoin="round" stroke-width="5.11" d="M469.7 711.1c19.6-42.6-150.4-145.7-65.9-258.2 0 0-28 56.8-2.8 70.7s35.4 19.1 41 61.9 35.5 41.4 47.9 69.4 26.1 103.2 15.5 124.6c52.9-109-7.5-160.8-23-243.4-8.3-44.5 28-74.3 32.4-105.9s-21.8-76.7-17.4-110 26.7-36.8 26.7-74.9-53.5-159.1-80.2-121.8c-18-17.2 29.9-80.8-31.8-98.7s-59.4 3.2-88.8 13.1-55.9-2.8-105.6 44.8-11.4 61.9-32.8 92.8c-52.2 75.3-39.2 158.8-71.8 200.3-52.8 67.5-38.6 131.4-30.6 182 9.2 58.1 20 114-8 162.8 22.4-12.3 32.4-41.8 57.2-140 19.5-77.6-58.8-97.3 12.4-195.4 25.1-34.6 50.2-65.6 50.2-128.6s23.6-41.1 26.7-63.7S229 71 301.1 66.8s70.1-45.2 92.1-15c36.1 49.5 34.8 46.3.6 23.4-28-18.7-75.8 10.5-86.4 27.9s-32.5 48.6-44.8 55.4-26.8 57.4-38.6 74.6 2.2 75.1-17.7 103.4-44.2 71-37.4 101.9 22.4 99.2-8.6 150.3-35.8 91.9-23.4 127.1c6.6 18.7 28 64.1 23.9 68 17.2-9.5-27.1-109.4 6-148.1s57.3-136.9 51.8-172.5c-3.8-24.6-12.3-54.8-8-73.1 21.5-91.5 19.2-91.3 19.2 1.6 0 58.5 33.9 90.2 31.6 118.1-3.7 45.8-44.7 90.3-60.1 117.8-9.8 17.4-14.9 73.6 32.3 104.7 83.1 54.9 66.1 47.4 13-18-21.7-26.7-36.3-65.8-9.9-95.7 20.1-22.7 52.2-56.2 51.8-110.3-.3-37.2-16.9-93.5-29.8-133.1-21.7-66.6-2.9-71 3.8-109.1 9.2-52.2 36.4-156.9 110.5-156.9 32 0 65.1 15 70.9 22.5s30.7 103.5 30.7 124.9-5.4 86.9-24.2 115.7c-16 24.4-22.5 66.1-57.9 71.4s-69.3-19.7-91.4-38.1c-15.9-13.3-21.6-30.4-29.1-45.5-4-8.1-21.3-46.1-10.1-71.7 6.4-15.7 14.9-16.3 14.9-16.3 4.2 2.6 18.6 10.5 32.4 8.8s20.9-8.9 23.9-8.8 9 .5 9.1-3.1a2.8 2.8 0 0 0-.6-1.8c-1.5-1.8-5.2-2.2-8.3-4.1s-17-10.1-30.6-8.3c-9.1.7-11.5-2.1-10.9-.4s5.8 2.2 1.7 3.5-11-5.7-9.8-2.3 7.2 3.4 5.4 5.1-15.3-4.3-12.1-1 10.1 3.6 6.8 5.3c-5.5 2.8-16.4-2.3-11.8 1.4s5.4 3.6 8.1 2.4c5.8-3 12.1-12.8 18.6-11.4 3.4.7-3.1 2.8-2.4 10.7.5 5.3 5.3 8.7 11 8.6s11.5-4.1 11.3-10.4-6.8-9.2-10.3-9.4-6.7 8.4-4.5 10.8 5.3 1.8 6.4-1.1 0-5.5-3.6-5.7-8.2-6.5 1.2-5.3c0 0 6.8-2.6 33.8 10.3 2.7-2.5-1.4-27.9-6.8-31.2s-42.6-15.2-56.7-4.5c-8.9 6.7 1.7 4.3 16.3 6s21.8 6.5 29.8 5.2 12.3-7 14.8-4.4 27.6 41.1 19.3 76.7c-13.2 12.3-7 27.7 4.5 25.8s6.1 9.6 20.7 7.5 3.5 20.7-.4 20.6-12.3-2.9-26 4.3-10.8-1.4-19.5-1.3c0 0 7.3 1 9.4 5s14.7 23.2 36.9 20.8 33.4-18.7 33.4-27.8c0-6.3 6.6-7.1 6.6-7.1s-7.8 5.1-15.2 4.8-23.9-4-24.2 7.6 32.2-2.8 32.2-2.8c1.5 4.9-13.7 23.6-32.8 25.3s-35.8-16.1-36.9-20.8c0 0 25.5 5.3 33.6 2.7s2.5-10.7 2.5-10.7-4.8-17.9.4-20.6c13.8-1.5 11-8.4 17.1-11.1 15.4-6.9 6-19.4-2.9-28.7-16.7-60-2.7-71.8-1-75s7.5 1.4 15.6.7 13.7-6.9 27.3-12.1 31.1-1.2 20.5-5.6c-16.6-6.9-55.6 3.8-60 13.7-2.5 5.7-6.1 24.6-2.7 26.3 22.3-18.9 20-16.3 20-16.3 8.7-3.4 6.1 3.9 2.7 4.8s-3.7 3.9-1.8 6.4 5 2.3 6.4-.5-4-10.3-7.4-9.3-8 4.5-6.2 11.5 6.7 8.8 12.8 7.4 9.3-5.7 8.2-11c-1.5-7.8-8.4-9-5.4-10.5 5.9-2.9 19.5 6.2 26 7.8 2.9.5 2.9.5 9.1-2.1s-7.7.7-13.9-.7c-3.6-.8 7.1-2.9 9.1-4.8s-12.1 3.7-15.3 2 6.9-3.4 8.5-6.1-9.1 4.7-13.7 4.4 2.1-4.5 4.2-6.4-4.2 1.8-13.2 3.3c-13.7 1.6-19.8 12.1-22.9 15.4s-6 3.9-6.8 6a2.5 2.5 0 0 0-.1 1.9c1.1 3.4 6.8 1.7 9.6.8s7.6 4.2 21.4 2.6 20.3-5.6 23.6-9.2"/><path fill="none" stroke="#2f3540" stroke-linecap="round" stroke-linejoin="round" stroke-width="5.11" d="M466 708.3c19.6-42.6-150.4-145.7-65.9-258.2 0 0-28 56.8-2.8 70.7s35.4 19 41 61.8 35.5 41.5 47.9 69.4 26.1 103.3 15.5 124.7c52.9-109-7.5-160.8-23-243.4-8.3-44.5 28-74.4 32.4-105.9s-21.8-76.7-17.4-110 26.8-36.9 26.8-74.9-53.6-159.1-80.3-121.8c-18-17.2 29.9-80.8-31.8-98.7s-59.4 3.2-88.8 13.1-55.9-2.8-105.6 44.8-11.4 61.9-32.8 92.8C129 248 142 331.4 109.4 373c-52.8 67.4-38.6 131.4-30.6 182 9.2 58.1 20 114-8 162.7 22.4-12.3 32.4-41.8 57.2-140 19.5-77.6-58.8-97.2 12.4-195.3 25.1-34.7 50.2-65.6 50.2-128.6s23.6-41.1 26.7-63.7 8-121.9 80.1-126.1 70.1-45.3 92.1-15.1c36.1 49.6 34.8 46.4.6 23.5-28-18.7-75.8 10.4-86.4 27.9s-32.5 48.5-44.8 55.3-26.8 57.4-38.6 74.7 2.2 75.1-17.7 103.4-44.2 71-37.4 101.9 22.4 99.2-8.6 150.3-35.8 91.8-23.4 127.1c6.6 18.7 28 64.1 23.9 67.9 17.2-9.4-27.1-109.3 6.1-148s57.2-136.9 51.7-172.6c-3.8-24.5-12.3-54.7-8-73 21.5-91.6 19.2-91.3 19.2 1.6 0 58.4 33.9 90.2 31.6 118-3.7 45.8-44.7 90.4-60.1 117.8-9.8 17.4-14.9 73.6 32.3 104.8 83.1 54.9 66.1 47.3 13-18-21.7-26.8-36.3-65.8-9.9-95.7 20.1-22.8 52.2-56.2 51.8-110.3-.3-37.2-16.9-93.6-29.8-133.2-21.7-66.5-2.9-70.9 3.8-109 9.2-52.3 36.4-156.9 110.5-156.9 32 0 65.1 15 70.9 22.5s30.7 103.4 30.7 124.9-5.4 86.9-24.2 115.7c-16 24.4-22.5 66.1-57.9 71.4s-69.3-19.7-91.4-38.1c-15.9-13.4-21.6-30.4-29.1-45.6-4-8-21.3-46-10.1-71.6 6.4-15.8 14.9-16.3 14.9-16.3 4.2 2.6 18.6 10.5 32.4 8.7s20.9-8.8 23.9-8.7 9 .5 9.1-3.1a2.8 2.8 0 0 0-.6-1.8c-1.5-1.8-5.2-2.2-8.3-4.2s-17-10-30.6-8.2c-9.1.6-11.5-2.1-10.9-.5s5.8 2.3 1.7 3.6-11-5.7-9.8-2.3 7.2 3.4 5.4 5.1-15.3-4.4-12.1-1 10.1 3.6 6.8 5.2c-5.5 2.9-16.4-2.2-11.8 1.5s5.4 3.5 8.1 2.4c5.8-3.1 12.1-12.8 18.6-11.4 3.4.7-3.1 2.8-2.4 10.7.5 5.3 5.3 8.7 11 8.6s11.5-4.1 11.3-10.5-6.8-9.1-10.3-9.3-6.7 8.4-4.5 10.8 5.3 1.8 6.4-1.1 0-5.6-3.6-5.7-8.2-6.6 1.3-5.3c0 0 6.7-2.7 33.7 10.3 2.7-2.5-1.4-27.9-6.8-31.2s-42.6-15.2-56.7-4.6c-8.9 6.8 1.7 4.3 16.3 6.1s21.8 6.5 29.8 5.2 12.3-7 14.8-4.4 27.6 41.1 19.3 76.7c-13.2 12.2-7 27.7 4.5 25.8s6.1 9.6 20.7 7.4 3.5 20.8-.4 20.6-12.3-2.8-26 4.4-10.8-1.4-19.5-1.4c0 0 7.3 1 9.4 5.1 1.2 2.4 14.7 23.2 36.9 20.8s33.4-18.8 33.4-27.8c0-6.3 6.6-7.1 6.6-7.1s-7.8 5.1-15.2 4.8-23.9-4-24.2 7.6c-.1 10.1 32.2-2.8 32.2-2.8 1.5 4.8-13.7 23.5-32.8 25.3s-35.8-16.1-36.9-20.8c0 0 25.5 5.2 33.6 2.6s2.5-10.7 2.5-10.7-4.8-17.8.4-20.6c13.8-1.4 11-8.3 17.1-11 15.4-7 6-19.4-2.9-28.8-16.7-59.9-2.6-71.7-1-74.9s7.5 1.3 15.6.7 13.7-6.9 27.3-12.1 31.1-1.2 20.5-5.6c-16.6-6.9-55.6 3.8-60 13.7-2.5 5.7-6.1 24.5-2.7 26.3 22.3-18.9 20-16.3 20-16.3 8.7-3.5 6.1 3.8 2.7 4.8s-3.7 3.9-1.8 6.4 5 2.3 6.4-.5-4-10.3-7.4-9.3-8 4.4-6.2 11.5 6.7 8.8 12.8 7.4 9.3-5.7 8.2-11c-1.5-7.8-8.4-9.1-5.4-10.6 5.9-2.9 19.5 6.3 26 7.9 2.9.4 2.9.4 9.1-2.1s-7.7.7-13.9-.7c-3.6-.9 7.1-2.9 9.1-4.8s-12.1 3.7-15.3 1.9 6.9-3.3 8.5-6-9 4.7-13.7 4.4 2.1-4.5 4.2-6.5-4.2 1.9-13.2 3.4c-13.7 1.5-19.8 12.1-22.9 15.4s-6 3.9-6.8 6a2.5 2.5 0 0 0-.1 1.9c1.1 3.4 6.8 1.6 9.6.8s7.6 4.2 21.4 2.6 20.3-5.7 23.6-9.2"/></svg>