<svg xmlns="http://www.w3.org/2000/svg" width="16" height="11" viewBox="0 0 16 11"><path fill="#f66256" d="M5.7.4h1.9v6.9c0 1.7-.8 2.8-3.3 2.8s-3.2-1-3.2-2.6v-.4a.6.6 0 0 1 .6-.5h1.7V7c0 .4.2 1 .8 1s.9-.7.9-1.3V.9a.5.5 0 0 1 .6-.5z"/><path fill="#94d2d4" d="M4.7.9h2v6.8c0 1.7-.9 2.9-3.4 2.9S.1 9.5.1 7.9v-.4A.6.6 0 0 1 .7 7h1.8v.4c0 .4.2 1 .8 1s.9-.7.9-1.3V1.3a.5.5 0 0 1 .5-.4z"/><path fill="#2f3540" d="M6.7 7.7V.9H5.2v5.9c0 .6-.1 1.3-.9 1.3h-.2a.8.8 0 0 1-.8.5c-.6 0-.8-.6-.8-1v-.5H1.1v.4c0 1.6 1.2 2.6 3.2 2.6h1.3a2.5 2.5 0 0 0 1.1-2.4zm2.5-2.2v-.4h.2a.1.1 0 0 0 .1-.1c.1 0 .1-.1.1-.2V3.3h.6v1.6a.8.8 0 0 1-.2.5l-.5.2zM9.7 3a.3.3 0 0 1-.1-.2c0-.1.1-.1.1-.2h.3c.1 0 .2 0 .2.1v.2c0 .1 0 .2-.1.2s-.1.1-.2.1zm2.6 1.3h-1.2l.2.2h.6l.3.3a.8.8 0 0 1-.7.3H11c-.1-.1-.3-.2-.3-.3a.8.8 0 0 1-.2-.5.8.8 0 0 1 .2-.4q0-.2.3-.3h.9l.3.3a.7.7 0 0 1 .1.5zm-1.1-.5a.3.3 0 0 0-.1.2h.7a.3.3 0 0 0-.1-.2h-.5zM12.9 5l-.4-.2.2-.4h.2l-.2-.2c-.1 0-.1-.1-.1-.3s0-.2.1-.2.1-.2.3-.2h1v.4h-.8a.1.1 0 0 0 .1.1h.6l.2.2c.1 0 .1.1.1.3s0 .2-.1.2-.1.2-.3.2H13zm1.7 0l-.3-.2.2-.4h.2l-.3-.2a.4.4 0 0 1-.1-.3v-.3l.3-.2h1.1l-.2.4h-.1a.2.2 0 0 1 .2.2c.1 0 .1.1.1.3v.2l-.3.2h-.9zM9.2 8.1h.3a.1.1 0 0 0 .1-.1V6.4h.1v1.4c0 .1 0 .2-.1.2h-.4zm.4-2zm.7 1.5l-.3-.2v-.7l.3-.2h.6l.2.2V7c0 .2-.1.3-.1.4l-.2.2h-.6zm.5-.1l.2-.2v-.5l-.2-.2h-.5c-.1 0-.1.1-.2.2v.5l.2.2h.5zm1.8-1.6v1.7h-.1v-.2l-.2.2h-.6l-.3-.2v-.7l.3-.2h.6l.2.2v-.8zm-.4 1.6l.2-.2v-.5c-.1-.1-.1-.2-.2-.2h-.5l-.2.2v.5l.2.2h.5zm.9.1l-.2-.2c-.1-.1-.1-.2-.1-.4a.4.4 0 0 1 .1-.3c0-.1.1-.1.2-.2h.6c.1.1.2.1.2.2a.4.4 0 0 1 .1.3c0 .2 0 .3-.1.4l-.2.2h-.6zm.6-.1c0-.1.1-.1.1-.2a.4.4 0 0 0 .1-.3c0-.1 0-.2-.1-.2v-.2h-.6v.2c-.1 0-.1.1-.1.2a.4.4 0 0 0 .1.3c0 .1.1.1.1.2h.6zm.6-1.4zm0 .3h.1v1.2h-.1zm1.4.2c.1 0 .2.2.2.3v.7h-.2v-.7a.4.4 0 0 0-.1-.3h-.3l-.3.2c-.1 0-.1.2-.1.3v.6h-.1V6.4h.1v.3a.2.2 0 0 1 .2-.2h.3z"/></svg>