<svg xmlns="http://www.w3.org/2000/svg" width="256" height="166" viewBox="0 0 256 166"><path fill="#f66256" d="M91 1.9h31v110.3c0 26.9-13.7 45.3-53.4 45.3-31.6 0-51-16.3-51-42v-6.8c0-4.2 3.9-7.5 8.7-7.4l28.6.3.5 7.3c0 5.7 3.3 15.1 13.2 15.1 12.3 0 14.2-10.6 14.2-20.8l-.4-93.8c0-4.1 3.8-7.5 8.6-7.5z"/><path fill="#94d2d4" d="M75.1 8.5h31.3v110.2c0 27-13.7 45.4-53.4 45.4-31.7 0-51-16.4-51-42.1v-6.3c0-4.4 4.1-7.9 9.2-7.9l28.1.3.5 7.4c0 5.7 3.3 15.1 13.2 15.1 12.3 0 14.2-10.6 14.2-20.9l-.4-94c-.1-4 3.7-7.2 8.3-7.2z"/><path fill="#2f3540" d="M106.6 118.7V8.5h-24l.4 94.7c0 10.2-1.9 20.8-14.2 20.8a11.1 11.1 0 0 1-3.7-.5c-1.9 4.2-5.5 7.1-11.9 7.1-9.9 0-13.2-9.4-13.2-15.1l-.5-7.4-21.7-.2v7.6c0 25.7 19.3 42 51 42a88.5 88.5 0 0 0 21.2-2.2c11.9-7.9 16.6-20.8 16.6-36.6zM147 83.2l2.4-6.6a5.5 5.5 0 0 0 2.9.8 2.5 2.5 0 0 0 2-.9 4 4 0 0 0 .7-2.6V48h9.4v25.9a10.6 10.6 0 0 1-2.9 7.8c-1.9 2-4.6 2.9-8 2.9a12.3 12.3 0 0 1-6.5-1.4zm8.6-39.6a4.3 4.3 0 0 1-1.6-3.5 4.6 4.6 0 0 1 1.6-3.6 6.7 6.7 0 0 1 8.2 0 4.1 4.1 0 0 1 1.6 3.4 4.7 4.7 0 0 1-1.6 3.7 6.4 6.4 0 0 1-8.2 0zm41.9 20.1h-19.3a4.8 4.8 0 0 0 2.2 3.1 7.5 7.5 0 0 0 4.3 1.2 8.1 8.1 0 0 0 3.3-.6 7.4 7.4 0 0 0 2.8-1.8l4.9 5.2c-2.5 2.8-6.3 4.3-11.3 4.3a17.7 17.7 0 0 1-8.2-1.8 13.7 13.7 0 0 1-5.5-19.1 12.9 12.9 0 0 1 5.2-4.9 17.2 17.2 0 0 1 14.7-.1 12.7 12.7 0 0 1 5.2 4.8 14.5 14.5 0 0 1 1.9 7.4s-.1.8-.2 2.3zm-17.7-8.3a6.2 6.2 0 0 0-1.8 3.4h10.9a5.6 5.6 0 0 0-1.8-3.4 5.6 5.6 0 0 0-3.6-1.2 5.7 5.7 0 0 0-3.7 1.2zm26.4 18.9a19 19 0 0 1-5.3-2l2.8-6.4a14.5 14.5 0 0 0 4.4 1.8 16.6 16.6 0 0 0 4.9.7 8.7 8.7 0 0 0 3.3-.5 1.4 1.4 0 0 0 .9-1.3c0-.6-.4-1-1.1-1.3a27.4 27.4 0 0 0-3.7-.7 48.2 48.2 0 0 1-5.4-1 8 8 0 0 1-3.9-2.4 6.5 6.5 0 0 1-1.6-4.8 7.2 7.2 0 0 1 1.5-4.5 9.7 9.7 0 0 1 4.5-3.2 18.1 18.1 0 0 1 7-1.1 36.6 36.6 0 0 1 5.7.5 17.9 17.9 0 0 1 4.8 1.7l-2.8 6.4a14.8 14.8 0 0 0-7.7-2 8.2 8.2 0 0 0-3.2.5c-.7.4-1.1.8-1.1 1.4s.4 1 1.2 1.3a24.5 24.5 0 0 0 3.7.7 42.5 42.5 0 0 1 5.5 1.2 8.5 8.5 0 0 1 3.7 2.3 6.4 6.4 0 0 1 1.6 4.7 7.2 7.2 0 0 1-1.5 4.5 8.9 8.9 0 0 1-4.5 3.1 19.4 19.4 0 0 1-7.2 1.2 28.2 28.2 0 0 1-6.5-.8zm27.9 0a17.1 17.1 0 0 1-5.2-2l2.8-6.4a13.9 13.9 0 0 0 4.3 1.8 17.7 17.7 0 0 0 5 .7 7.8 7.8 0 0 0 3.2-.5 1.5 1.5 0 0 0 1-1.3c0-.6-.4-1-1.2-1.3a28.6 28.6 0 0 0-3.6-.7 46.3 46.3 0 0 1-5.5-1 7.3 7.3 0 0 1-3.8-2.4 6.5 6.5 0 0 1-1.7-4.8 6.7 6.7 0 0 1 1.6-4.5 9.9 9.9 0 0 1 4.4-3.2 18.7 18.7 0 0 1 7-1.1 37.9 37.9 0 0 1 5.8.5 16 16 0 0 1 4.7 1.7l-2.8 6.4a14.4 14.4 0 0 0-7.6-2 8.7 8.7 0 0 0-3.3.5c-.7.4-1 .8-1 1.4s.4 1 1.1 1.3a26.5 26.5 0 0 0 3.8.7 40.6 40.6 0 0 1 5.4 1.2 8.3 8.3 0 0 1 3.8 2.3 6.8 6.8 0 0 1 1.6 4.7 6.7 6.7 0 0 1-1.6 4.5 8.9 8.9 0 0 1-4.5 3.1 18.5 18.5 0 0 1-7.1 1.2 29.8 29.8 0 0 1-6.6-.8zm-86.2 50.2a4 4 0 0 1-1.7-1l.7-1.4a4.8 4.8 0 0 0 3.2 1.1 3.1 3.1 0 0 0 2.6-1 4.4 4.4 0 0 0 .9-2.9V97.9h1.9v21.4a5.7 5.7 0 0 1-1.4 4 5 5 0 0 1-3.9 1.5 8.5 8.5 0 0 1-2.3-.3zm5.6-31.8a1.4 1.4 0 0 1-.5-1.1 1.6 1.6 0 0 1 .5-1.1 1.4 1.4 0 0 1 1.1-.4 1.3 1.3 0 0 1 1 .4 1.5 1.5 0 0 1 0 2.2 1.3 1.3 0 0 1-1 .4 1.4 1.4 0 0 1-1.1-.4zm10.7 23.6a8.7 8.7 0 0 1-3.5-3.6 10.7 10.7 0 0 1 0-10.2 8.4 8.4 0 0 1 3.5-3.5 10.1 10.1 0 0 1 9.9 0 8.4 8.4 0 0 1 3.5 3.5 10.7 10.7 0 0 1 0 10.2 8.7 8.7 0 0 1-3.5 3.6 10.1 10.1 0 0 1-9.9 0zm9-1.5a7.1 7.1 0 0 0 2.8-2.9 8.5 8.5 0 0 0 1-4.3 8.2 8.2 0 0 0-1-4.2 7.1 7.1 0 0 0-2.8-2.9 8.1 8.1 0 0 0-4.1-1.1 8 8 0 0 0-4 1.1 7.1 7.1 0 0 0-2.8 2.9 8.2 8.2 0 0 0-1 4.2 8.5 8.5 0 0 0 1 4.3 7.1 7.1 0 0 0 2.8 2.9 8 8 0 0 0 4 1.1 8.1 8.1 0 0 0 4.1-1.1zm28.1-25.2v27.8h-1.8v-4.6a8.6 8.6 0 0 1-3.3 3.5 9.2 9.2 0 0 1-4.7 1.3 10.6 10.6 0 0 1-5-1.3 9.5 9.5 0 0 1-3.4-3.5 9.8 9.8 0 0 1-1.3-5.2 9.7 9.7 0 0 1 1.3-5.1 8.8 8.8 0 0 1 3.4-3.5 9.6 9.6 0 0 1 5-1.3 8.5 8.5 0 0 1 4.7 1.3 8.3 8.3 0 0 1 3.3 3.4V89.6zm-5.7 25.2a7.1 7.1 0 0 0 2.8-2.9 8.6 8.6 0 0 0 1.1-4.3 8.2 8.2 0 0 0-1.1-4.2 7.1 7.1 0 0 0-2.8-2.9 7.8 7.8 0 0 0-8 0 7.1 7.1 0 0 0-2.8 2.9 8.2 8.2 0 0 0-1.1 4.2 8.6 8.6 0 0 0 1.1 4.3 7.1 7.1 0 0 0 2.8 2.9 7.8 7.8 0 0 0 8 0zm14 1.5a9.3 9.3 0 0 1-3.5-3.6 10.7 10.7 0 0 1 0-10.2 9.1 9.1 0 0 1 3.5-3.5 10.3 10.3 0 0 1 10 0 9.1 9.1 0 0 1 3.5 3.5 10.7 10.7 0 0 1 0 10.2 9.3 9.3 0 0 1-3.5 3.6 10.3 10.3 0 0 1-10 0zm9-1.5a7.1 7.1 0 0 0 2.8-2.9 8.6 8.6 0 0 0 1.1-4.3 8.2 8.2 0 0 0-1.1-4.2 7.1 7.1 0 0 0-2.8-2.9 7.8 7.8 0 0 0-8 0 7.1 7.1 0 0 0-2.8 2.9 8.2 8.2 0 0 0-1.1 4.2 8.6 8.6 0 0 0 1.1 4.3 7.1 7.1 0 0 0 2.8 2.9 7.8 7.8 0 0 0 8 0zm10.3-22.1a1.4 1.4 0 0 1-.5-1.1 1.6 1.6 0 0 1 .5-1.1 1.5 1.5 0 1 1 0 2.2zm.1 5.2h1.9v19.5H229zm22.9 2c1.4 1.4 2.1 3.4 2.1 6.1v11.4h-1.8v-11.3a7 7 0 0 0-1.7-5 6.4 6.4 0 0 0-4.7-1.7 7 7 0 0 0-5.4 2.1 7.6 7.6 0 0 0-2 5.5v10.4h-1.8V97.9h1.8v4.2a6.6 6.6 0 0 1 3-3.2 8.9 8.9 0 0 1 4.7-1.2 7.6 7.6 0 0 1 5.8 2.2z"/></svg>