<svg xmlns="http://www.w3.org/2000/svg" width="64" height="42" viewBox="0 0 64 42"><path fill="#f66256" d="M22.7.7h7.8v27.6c0 6.7-3.4 11.3-13.3 11.3-8 0-12.8-4-12.8-10.5v-1.7a2 2 0 0 1 2.2-1.8h7.1v1.9c0 1.4.9 3.8 3.4 3.8s3.5-2.7 3.5-5.2V2.6A2 2 0 0 1 22.7.7z"/><path fill="#94d2d4" d="M18.8 2.4h7.8v27.5c0 6.8-3.4 11.4-13.3 11.4-8 0-12.8-4.1-12.8-10.5v-1.6a2.2 2.2 0 0 1 2.3-2h7V29c0 1.4.9 3.8 3.4 3.8s3.5-2.7 3.5-5.2V4.2a1.9 1.9 0 0 1 2.1-1.8z"/><path fill="#2f3540" d="M26.7 29.9V2.4h-6.1v23.7c0 2.5-.4 5.2-3.5 5.2l-.9-.2a3 3 0 0 1-3 1.8c-2.5 0-3.3-2.4-3.3-3.8v-1.8H4.4v1.9c0 6.5 4.9 10.5 12.8 10.5a27.3 27.3 0 0 0 5.3-.5c3-2.1 4.2-5.3 4.2-9.3zm10.1-8.8l.5-1.7.8.2.5-.2a1.4 1.4 0 0 0 .2-.7v-6.5h2.3v6.5a2.6 2.6 0 0 1-.7 2 2.7 2.7 0 0 1-2 .7 3.5 3.5 0 0 1-1.6-.3zm2.1-9.9a1.2 1.2 0 0 1-.4-.9 1 1 0 0 1 .4-.9 1.3 1.3 0 0 1 1-.4 1.5 1.5 0 0 1 1.1.4 1.1 1.1 0 0 1 .3.8 1.2 1.2 0 0 1-.3.9 1.5 1.5 0 0 1-1.1.4 1.7 1.7 0 0 1-1-.3zm10.5 5h-4.9a1.6 1.6 0 0 0 .6.8l1.1.2h.8l.7-.4 1.2 1.2a3.3 3.3 0 0 1-2.8 1 4.6 4.6 0 0 1-2.1-.4 3.3 3.3 0 0 1-1.3-1.3 3.4 3.4 0 0 1-.5-1.7 3.5 3.5 0 0 1 .5-1.8 3 3 0 0 1 1.3-1.2 3.8 3.8 0 0 1 1.9-.5 5.8 5.8 0 0 1 1.8.4 3.4 3.4 0 0 1 1.2 1.2 3.2 3.2 0 0 1 .5 1.9zM45 14.1a1.4 1.4 0 0 0-.5.8h2.7a1.2 1.2 0 0 0-.4-.8 1.6 1.6 0 0 0-.9-.3 1.2 1.2 0 0 0-.9.3zm6.5 4.7l-1.3-.5.7-1.6 1.1.5h2.1c.1 0 .2-.2.2-.3a.3.3 0 0 0-.3-.3l-.9-.2a5.8 5.8 0 0 1-1.4-.3l-.9-.5a1.7 1.7 0 0 1-.4-1.3 1.5 1.5 0 0 1 .4-1.1 2.4 2.4 0 0 1 1.1-.8 4.3 4.3 0 0 1 1.7-.3l1.5.2 1.2.4-.7 1.6a4.6 4.6 0 0 0-2-.5h-.8c-.2.1-.2.2-.2.4l.2.3 1 .2 1.3.3 1 .5a1.6 1.6 0 0 1 .4 1.2 1.9 1.9 0 0 1-.4 1.2 3 3 0 0 1-1.1.7 4.8 4.8 0 0 1-1.8.3 5 5 0 0 1-1.7-.1zm7 0l-1.3-.5.7-1.6 1.1.5h2.1c.1 0 .2-.2.2-.3a.3.3 0 0 0-.3-.3l-.9-.2a5.8 5.8 0 0 1-1.4-.3l-.9-.5a1.7 1.7 0 0 1-.4-1.3 2 2 0 0 1 .3-1.1 3.6 3.6 0 0 1 1.2-.8 4 4 0 0 1 1.7-.3l1.4.2 1.2.4-.7 1.6a3.8 3.8 0 0 0-1.9-.5h-.8c-.2.1-.2.2-.2.4s0 .2.2.3l1 .2 1.3.3 1 .5a2.1 2.1 0 0 1 .4 1.2 2.8 2.8 0 0 1-.4 1.2 3 3 0 0 1-1.1.7 4.8 4.8 0 0 1-1.8.3 5 5 0 0 1-1.7-.1zM37 31.4l-.5-.3.2-.3a1.1 1.1 0 0 0 .8.3.9.9 0 0 0 .7-.3 1.4 1.4 0 0 0 .2-.7v-5.4h.5v5.4a1.3 1.3 0 0 1-.4 1 1.3 1.3 0 0 1-.9.4zm1.4-8c-.1 0-.1-.1-.1-.2a.4.4 0 0 1 .1-.3h.5c.1.1.1.1.1.2s0 .2-.1.3h-.3c-.1.1-.2.1-.2 0zm2.6 5.9a2.4 2.4 0 0 1-.8-.9 2.5 2.5 0 0 1-.4-1.2 2.8 2.8 0 0 1 .4-1.3 2.4 2.4 0 0 1 .8-.9 2.8 2.8 0 0 1 1.3-.3 2.1 2.1 0 0 1 1.2.3 2 2 0 0 1 .9.9 2.8 2.8 0 0 1 .3 1.3 2.4 2.4 0 0 1-.3 1.2 2 2 0 0 1-.9.9 2.1 2.1 0 0 1-1.2.3 2.8 2.8 0 0 1-1.3-.3zm2.3-.3a2.7 2.7 0 0 0 .7-.8 1.7 1.7 0 0 0 .3-1 2 2 0 0 0-.3-1.1 1.6 1.6 0 0 0-.7-.7 1.8 1.8 0 0 0-2 0 1.6 1.6 0 0 0-.7.7 2 2 0 0 0-.3 1.1 1.7 1.7 0 0 0 .3 1 2.7 2.7 0 0 0 .7.8l1 .2zm7-6.3v6.9h-.4v-1.1a3 3 0 0 1-.8.8 2.7 2.7 0 0 1-1.2.3 2.8 2.8 0 0 1-1.3-.3 2.6 2.6 0 0 1-1.1-2.1 2.8 2.8 0 0 1 .3-1.3 2.4 2.4 0 0 1 .8-.9 2.8 2.8 0 0 1 1.3-.3 2 2 0 0 1 1.1.3 2 2 0 0 1 .9.9v-3.2zM48.9 29a2.7 2.7 0 0 0 .7-.8 1.7 1.7 0 0 0 .3-1 2 2 0 0 0-.3-1.1 1.6 1.6 0 0 0-.7-.7 1.8 1.8 0 0 0-2 0 1.6 1.6 0 0 0-.7.7 2 2 0 0 0-.3 1.1 1.7 1.7 0 0 0 .3 1 2.7 2.7 0 0 0 .7.8l1 .2zm3.5.3a2 2 0 0 1-.9-.9 2.4 2.4 0 0 1-.3-1.2 2.8 2.8 0 0 1 .3-1.3 2 2 0 0 1 .9-.9 2.8 2.8 0 0 1 1.3-.3 2.7 2.7 0 0 1 1.2.3 2 2 0 0 1 .9.9 2.8 2.8 0 0 1 .3 1.3 2.4 2.4 0 0 1-.3 1.2 2 2 0 0 1-.9.9 2.7 2.7 0 0 1-1.2.3 2.8 2.8 0 0 1-1.3-.3zm2.3-.3a2.7 2.7 0 0 0 .7-.8 3 3 0 0 0 .2-1 3.6 3.6 0 0 0-.2-1.1 1.6 1.6 0 0 0-.7-.7 1.9 1.9 0 0 0-1-.3 1.5 1.5 0 0 0-1 .3 1.8 1.8 0 0 0-.8.7 3.6 3.6 0 0 0-.2 1.1 3 3 0 0 0 .2 1 3 3 0 0 0 .8.8l1 .2zm2.5-5.6a.3.3 0 0 1-.1-.2c0-.1.1-.2.1-.3h.6c0 .1.1.1.1.2s-.1.2-.1.3h-.6zm.1 1.3h.4v4.9h-.4zm5.7.5a2.5 2.5 0 0 1 .5 1.6v2.8H63v-2.8a1.7 1.7 0 0 0-.4-1.3 1.2 1.2 0 0 0-1.1-.4 2 2 0 0 0-1.4.5 2.2 2.2 0 0 0-.5 1.4v2.6h-.5v-4.9h.5v1.1a1.6 1.6 0 0 1 .8-.8 2 2 0 0 1 1.1-.3 2.5 2.5 0 0 1 1.5.5z"/></svg>