<svg xmlns="http://www.w3.org/2000/svg" width="32" height="21" viewBox="0 0 32 21"><path fill="#f66256" d="M11.3.3h4v13.9c0 3.4-1.8 5.7-6.8 5.7s-6.4-2.1-6.4-5.3v-.9a1 1 0 0 1 1.1-.9h3.6v1c0 .7.4 1.9 1.6 1.9s1.8-1.4 1.8-2.7V1.3a1 1 0 0 1 1.1-1z"/><path fill="#94d2d4" d="M9.4 1.1h3.9V15c0 3.4-1.7 5.7-6.7 5.7S.2 18.6.2 15.4v-.8a1.1 1.1 0 0 1 1.1-1h3.6v.9a1.8 1.8 0 0 0 1.7 1.9c1.5 0 1.8-1.4 1.8-2.6V2.1a1.1 1.1 0 0 1 1-1z"/><path fill="#2f3540" d="M13.3 15V1.1h-3V13c0 1.3-.2 2.7-1.7 2.7h-.5a1.5 1.5 0 0 1-1.5.9 1.8 1.8 0 0 1-1.7-1.9v-.9H2.2v1c0 3.2 2.4 5.3 6.4 5.3a9.8 9.8 0 0 0 2.6-.3 5.1 5.1 0 0 0 2.1-4.8zm5.1-4.5l.3-.8h.6a.4.4 0 0 0 .1-.3V6.1h1.2v3.3a1.3 1.3 0 0 1-.4.9 1.2 1.2 0 0 1-1 .4zm1.1-4.9a.6.6 0 0 1-.2-.5c0-.2 0-.3.2-.4s.3-.2.5-.2.4 0 .5.2a.5.5 0 0 1 .2.4c0 .2-.1.3-.2.5h-1zm5.2 2.5h-2.4a.5.5 0 0 0 .3.4h.9l.4-.2.6.7a2 2 0 0 1-1.4.5l-1-.2a2.2 2.2 0 0 1-.7-.6 1.6 1.6 0 0 1-.3-.9 1.2 1.2 0 0 1 .3-.9.9.9 0 0 1 .6-.6 1.7 1.7 0 0 1 1-.3 1.6 1.6 0 0 1 .9.3 1.2 1.2 0 0 1 .6.6c.2.2.2.5.2.9zM22.5 7a.8.8 0 0 0-.2.5h1.3a.8.8 0 0 0-.2-.5h-.9zm3.3 2.4l-.6-.2.3-.8.6.2h1c.1 0 .1-.1.1-.2h-1.3l-.5-.3a1.4 1.4 0 0 1-.2-.6 1.1 1.1 0 0 1 .2-.6.9.9 0 0 1 .6-.4l.9-.2h.7l.6.2-.4.8-.9-.2h-.4l-.2.2c0 .1.1.1.2.2h1.1l.5.3a1.4 1.4 0 0 1 .2.6 1.4 1.4 0 0 1-.2.6 1.5 1.5 0 0 1-.6.4h-1.7zm3.5 0l-.6-.2.3-.8.6.2h1c.1 0 .1-.1.1-.2h-1.3l-.5-.3a1.4 1.4 0 0 1-.2-.6 1.1 1.1 0 0 1 .2-.6 1.3 1.3 0 0 1 .6-.4l.9-.2h.7l.6.2-.4.8-.9-.2H30l-.2.2c0 .1.1.1.2.2h1.1l.5.3a1.4 1.4 0 0 1 .2.6 1.4 1.4 0 0 1-.2.6 1.5 1.5 0 0 1-.6.4h-1.7zm-10.8 6.3h-.2v-.2h.7a.4.4 0 0 0 .1-.3v-2.8h.3v2.7c0 .2-.1.3-.2.5l-.5.2zm.7-4h-.1v-.2h.3v.2h-.2zm1.3 3l-.4-.5a1.4 1.4 0 0 1-.2-.6 1.1 1.1 0 0 1 .2-.6l.4-.5.7-.2.6.2a1 1 0 0 1 .4.5 1.1 1.1 0 0 1 .2.6 1.4 1.4 0 0 1-.2.6 1 1 0 0 1-.4.5h-1.3zm1.2-.2l.3-.4a.7.7 0 0 0 0-1l-.3-.4h-1a.8.8 0 0 0-.4.4.7.7 0 0 0-.1.5.7.7 0 0 0 .1.5.8.8 0 0 0 .4.4h1zm3.5-3.2v3.5H25v-.6l-.4.5h-1.2l-.5-.5a1.3 1.3 0 0 1-.1-.6 1.7 1.7 0 0 1 .1-.7l.5-.4.6-.2.6.2.4.4v-1.6zm-.7 3.2c.1-.1.3-.2.3-.4a.7.7 0 0 0 0-1c0-.2-.2-.3-.3-.4h-1a.8.8 0 0 0-.4.4.7.7 0 0 0-.1.5.7.7 0 0 0 .1.5.8.8 0 0 0 .4.4h1zm1.7.2l-.4-.5a1.4 1.4 0 0 1-.2-.6 1.1 1.1 0 0 1 .2-.6l.4-.5.7-.2.6.2a1 1 0 0 1 .4.5 1.1 1.1 0 0 1 .2.6 1.4 1.4 0 0 1-.2.6 1 1 0 0 1-.4.5h-1.3zm1.2-.2l.3-.4a.7.7 0 0 0 0-1l-.3-.4h-1l-.4.4a.7.7 0 0 0-.1.5.7.7 0 0 0 .1.5l.4.4h1zm1.3-2.8h-.1v-.2h.2v.2h-.1c0 .1 0 .1-.1.1a.1.1 0 0 1 .1-.1zm0 .7h.2v2.4h-.2zm2.9.2a1.9 1.9 0 0 1 .2.8v1.4h-.2v-1.4a.8.8 0 0 0-.2-.6.7.7 0 0 0-.6-.2.8.8 0 0 0-.7.2 1.4 1.4 0 0 0-.2.7v1.3h-.3v-2.4h.3v.5c0-.2.2-.3.3-.4l.6-.2a1.1 1.1 0 0 1 .8.3z"/></svg>